<?xml version="1.0" encoding="utf-8" standalone="no"?>
<!DOCTYPE svg PUBLIC "-//W3C//DTD SVG 1.1//EN"
  "http://www.w3.org/Graphics/SVG/1.1/DTD/svg11.dtd">
<!-- Created with matplotlib (https://matplotlib.org/) -->
<svg height="430.2pt" version="1.1" viewBox="0 0 1269.9 430.2" width="1269.9pt" xmlns="http://www.w3.org/2000/svg" xmlns:xlink="http://www.w3.org/1999/xlink">
 <defs>
  <style type="text/css">
*{stroke-linecap:butt;stroke-linejoin:round;}
  </style>
 </defs>
 <g id="figure_1">
  <g id="patch_1">
   <path d="M 0 430.2 
L 1269.9 430.2 
L 1269.9 0 
L 0 0 
z
" style="fill:#ffffff;"/>
  </g>
  <g id="axes_1">
   <g id="PolyCollection_1">
    <path clip-path="url(#pea3e9f631b)" d="M -1935.835714 312.251786 
L -1905.942857 312.251786 
L -1876.05 312.251786 
L -1846.157143 312.251786 
L -1816.264286 312.251786 
L -1786.371429 312.251786 
L -1756.478571 312.251786 
L -1726.585714 312.251786 
L -1696.692857 312.251786 
L -1666.8 312.251786 
L -1636.907143 312.251786 
L -1607.014286 312.251786 
L -1577.121429 312.251786 
L -1547.228571 312.251786 
L -1517.335714 312.251786 
L -1487.442857 312.251786 
L -1457.55 312.251786 
L -1427.657143 312.251786 
L -1397.764286 312.251786 
L -1367.871429 312.251786 
L -1337.978571 312.251786 
L -1308.085714 312.251786 
L -1278.192857 312.251786 
L -1248.3 312.251786 
L -1218.407143 312.251786 
L -1188.514286 312.251786 
L -1158.621429 312.251786 
L -1128.728571 312.251786 
L -1098.835714 312.251786 
L -1068.942857 312.251786 
L -1039.05 312.251786 
L -1009.157143 312.251786 
L -979.264286 312.251786 
L -949.371429 312.251786 
L -919.478571 312.251786 
L -889.585714 312.251786 
L -859.692857 312.251786 
L -829.8 312.251786 
L -799.907143 312.251786 
L -770.014286 312.251786 
L -740.121429 312.251786 
L -710.228571 312.251786 
L -680.335714 312.251786 
L -650.442857 312.251786 
L -620.55 312.251786 
L -590.657143 312.251786 
L -560.764286 312.251786 
L -530.871429 312.251786 
L -500.978571 312.251786 
L -471.085714 312.251786 
L -441.192857 312.251786 
L -411.3 312.251786 
L -381.407143 312.251786 
L -351.514286 312.251786 
L -321.621429 312.251786 
L -291.728571 312.251786 
L -261.835714 312.251786 
L -231.942857 312.251786 
L -202.05 312.251786 
L -172.157143 312.251786 
L -142.264286 312.251786 
L -112.371429 312.251786 
L -82.478571 312.251786 
L -52.585714 312.251786 
L -22.692857 312.251786 
L 7.2 312.251786 
L 37.092857 312.251786 
L 66.985714 312.251786 
L 96.878571 312.251786 
L 126.771429 312.251786 
L 156.664286 312.251786 
L 186.557143 312.251786 
L 216.45 312.251786 
L 246.342857 312.251786 
L 276.235714 312.251786 
L 306.128571 312.251786 
L 336.021429 312.251786 
L 365.914286 312.251786 
L 395.807143 312.251786 
L 425.7 312.251786 
L 455.592857 312.251786 
L 485.485714 312.251786 
L 515.378571 312.251786 
L 545.271429 312.251786 
L 575.164286 312.251786 
L 605.057143 312.251786 
L 634.95 312.251786 
L 664.842857 312.251786 
L 694.735714 312.251786 
L 724.628571 312.251786 
L 754.521429 312.251786 
L 784.414286 312.251786 
L 814.307143 312.251786 
L 844.2 312.251786 
L 874.092857 312.251786 
L 903.985714 312.251786 
L 933.878571 312.251786 
L 963.771429 312.251786 
L 993.664286 312.251786 
L 1023.557143 312.251786 
L 1053.45 312.251786 
L 1083.342857 312.251786 
L 1113.235714 312.251786 
L 1143.128571 312.251786 
L 1173.021429 312.251786 
L 1202.914286 312.251786 
L 1232.807143 312.251786 
L 1262.7 312.251786 
L 1292.592857 312.251786 
L 1322.485714 312.251786 
L 1352.378571 312.251786 
L 1382.271429 312.251786 
L 1412.164286 312.251786 
L 1442.057143 312.251786 
L 1471.95 312.251786 
L 1501.842857 312.251786 
L 1531.735714 312.251786 
L 1561.628571 312.251786 
L 1591.521429 312.251786 
L 1621.414286 312.251786 
L 1651.307143 312.251786 
L 1681.2 312.251786 
L 1711.092857 312.251786 
L 1740.985714 312.251786 
L 1770.878571 312.251786 
L 1800.771429 312.251786 
L 1830.664286 312.251786 
L 1860.557143 312.251786 
L 1890.45 312.251786 
L 1920.342857 312.251786 
L 1950.235714 312.251786 
L 1980.128571 312.251786 
L 2010.021429 312.251786 
L 2039.914286 312.251786 
L 2069.807143 312.251786 
L 2099.7 312.251786 
L 2129.592857 312.251786 
L 2159.485714 312.251786 
L 2189.378571 312.251786 
L 2219.271429 312.251786 
L 2249.164286 312.251786 
L 2279.057143 312.251786 
L 2308.95 312.251786 
L 2338.842857 312.251786 
L 2368.735714 312.251786 
L 2398.628571 312.251786 
L 2428.521429 312.251786 
L 2458.414286 312.251786 
L 2488.307143 312.251786 
L 2518.2 312.251786 
L 2548.092857 312.251786 
L 2577.985714 312.251786 
L 2607.878571 312.251786 
L 2637.771429 312.251786 
L 2667.664286 312.251786 
L 2697.557143 312.251786 
L 2727.45 312.251786 
L 2757.342857 312.251786 
L 2787.235714 312.251786 
L 2817.128571 312.251786 
L 2847.021429 312.251786 
L 2876.914286 312.251786 
L 2906.807143 312.251786 
L 2936.7 312.251786 
L 2966.592857 312.251786 
L 2996.485714 312.251786 
L 3026.378571 312.251786 
L 3056.271429 312.251786 
L 3086.164286 312.251786 
L 3116.057143 312.251786 
L 3145.95 312.251786 
L 3175.842857 312.251786 
L 3205.735714 312.251786 
L 3235.628571 312.251786 
L 3265.521429 312.251786 
L 3295.414286 312.251786 
L 3325.307143 312.251786 
L 3355.2 312.251786 
L 3385.092857 312.251786 
L 3414.985714 312.251786 
L 3444.878571 312.251786 
L 3474.771429 312.251786 
L 3504.664286 312.251786 
L 3534.557143 312.251786 
L 3564.45 312.251786 
L 3594.342857 312.251786 
L 3624.235714 312.251786 
L 3654.128571 312.251786 
L 3684.021429 312.251786 
L 3713.914286 312.251786 
L 3743.807143 312.251786 
L 3773.7 312.251786 
L 3803.592857 312.251786 
L 3833.485714 312.251786 
L 3863.378571 312.251786 
L 3893.271429 312.251786 
L 3923.164286 312.251786 
L 3953.057143 312.251786 
L 3982.95 312.251786 
L 4012.842857 312.251786 
L 4042.735714 312.251786 
L 4072.628571 312.251786 
L 4102.521429 312.251786 
L 4132.414286 312.251786 
L 4162.307143 312.251786 
L 4192.2 312.251786 
L 4222.092857 312.251786 
L 4251.985714 312.251786 
L 4281.878571 312.251786 
L 4311.771429 312.251786 
L 4311.771429 207.626786 
L 4281.878571 207.626786 
L 4251.985714 207.626786 
L 4222.092857 207.626786 
L 4192.2 207.626786 
L 4162.307143 207.626786 
L 4132.414286 207.626786 
L 4102.521429 207.626786 
L 4072.628571 207.626786 
L 4042.735714 207.626786 
L 4012.842857 207.626786 
L 3982.95 207.626786 
L 3953.057143 207.626786 
L 3923.164286 207.626786 
L 3893.271429 207.626786 
L 3863.378571 207.626786 
L 3833.485714 207.626786 
L 3803.592857 207.626786 
L 3773.7 207.626786 
L 3743.807143 207.626786 
L 3713.914286 207.626786 
L 3684.021429 207.626786 
L 3654.128571 207.626786 
L 3624.235714 207.626786 
L 3594.342857 207.626786 
L 3564.45 207.626786 
L 3534.557143 207.626786 
L 3504.664286 207.626786 
L 3474.771429 207.626786 
L 3444.878571 207.626786 
L 3414.985714 207.626786 
L 3385.092857 207.626786 
L 3355.2 207.626786 
L 3325.307143 207.626786 
L 3295.414286 207.626786 
L 3265.521429 207.626786 
L 3235.628571 207.626786 
L 3205.735714 207.626786 
L 3175.842857 207.626786 
L 3145.95 207.626786 
L 3116.057143 207.626786 
L 3086.164286 207.626786 
L 3056.271429 207.626786 
L 3026.378571 207.626786 
L 2996.485714 207.626786 
L 2966.592857 207.626786 
L 2936.7 207.626786 
L 2906.807143 207.626786 
L 2876.914286 207.626786 
L 2847.021429 207.626786 
L 2817.128571 207.626786 
L 2787.235714 207.626786 
L 2757.342857 207.626786 
L 2727.45 207.626786 
L 2697.557143 207.626786 
L 2667.664286 207.626786 
L 2637.771429 207.626786 
L 2607.878571 207.626786 
L 2577.985714 207.626786 
L 2548.092857 207.626786 
L 2518.2 207.626786 
L 2488.307143 207.626786 
L 2458.414286 207.626786 
L 2428.521429 207.626786 
L 2398.628571 207.626786 
L 2368.735714 207.626786 
L 2338.842857 207.626786 
L 2308.95 207.626786 
L 2279.057143 207.626786 
L 2249.164286 207.626786 
L 2219.271429 207.626786 
L 2189.378571 207.626786 
L 2159.485714 207.626786 
L 2129.592857 207.626786 
L 2099.7 207.626786 
L 2069.807143 207.626786 
L 2039.914286 207.626786 
L 2010.021429 207.626786 
L 1980.128571 207.626786 
L 1950.235714 207.626786 
L 1920.342857 207.626786 
L 1890.45 207.626786 
L 1860.557143 207.626786 
L 1830.664286 207.626786 
L 1800.771429 207.626786 
L 1770.878571 207.626786 
L 1740.985714 207.626786 
L 1711.092857 207.626786 
L 1681.2 207.626786 
L 1651.307143 207.626786 
L 1621.414286 207.626786 
L 1591.521429 207.626786 
L 1561.628571 207.626786 
L 1531.735714 207.626786 
L 1501.842857 207.626786 
L 1471.95 207.626786 
L 1442.057143 207.626786 
L 1412.164286 207.626786 
L 1382.271429 207.626786 
L 1352.378571 207.626786 
L 1322.485714 207.626786 
L 1292.592857 207.626786 
L 1262.7 207.626786 
L 1232.807143 207.626786 
L 1202.914286 207.626786 
L 1173.021429 207.626786 
L 1143.128571 207.626786 
L 1113.235714 207.626786 
L 1083.342857 207.626786 
L 1053.45 207.626786 
L 1023.557143 207.626786 
L 993.664286 207.626786 
L 963.771429 207.626786 
L 933.878571 207.626786 
L 903.985714 207.626786 
L 874.092857 207.626786 
L 844.2 207.626786 
L 814.307143 207.626786 
L 784.414286 207.626786 
L 754.521429 207.626786 
L 724.628571 207.626786 
L 694.735714 207.626786 
L 664.842857 207.626786 
L 634.95 207.626786 
L 605.057143 207.626786 
L 575.164286 207.626786 
L 545.271429 207.626786 
L 515.378571 207.626786 
L 485.485714 207.626786 
L 455.592857 207.626786 
L 425.7 207.626786 
L 395.807143 207.626786 
L 365.914286 207.626786 
L 336.021429 207.626786 
L 306.128571 207.626786 
L 276.235714 207.626786 
L 246.342857 207.626786 
L 216.45 207.626786 
L 186.557143 207.626786 
L 156.664286 207.626786 
L 126.771429 207.626786 
L 96.878571 207.626786 
L 66.985714 207.626786 
L 37.092857 207.626786 
L 7.2 207.626786 
L -22.692857 207.626786 
L -52.585714 207.626786 
L -82.478571 207.626786 
L -112.371429 207.626786 
L -142.264286 207.626786 
L -172.157143 207.626786 
L -202.05 207.626786 
L -231.942857 207.626786 
L -261.835714 207.626786 
L -291.728571 207.626786 
L -321.621429 207.626786 
L -351.514286 207.626786 
L -381.407143 207.626786 
L -411.3 207.626786 
L -441.192857 207.626786 
L -471.085714 207.626786 
L -500.978571 207.626786 
L -530.871429 207.626786 
L -560.764286 207.626786 
L -590.657143 207.626786 
L -620.55 207.626786 
L -650.442857 207.626786 
L -680.335714 207.626786 
L -710.228571 207.626786 
L -740.121429 207.626786 
L -770.014286 207.626786 
L -799.907143 207.626786 
L -829.8 207.626786 
L -859.692857 207.626786 
L -889.585714 207.626786 
L -919.478571 207.626786 
L -949.371429 207.626786 
L -979.264286 207.626786 
L -1009.157143 207.626786 
L -1039.05 207.626786 
L -1068.942857 207.626786 
L -1098.835714 207.626786 
L -1128.728571 207.626786 
L -1158.621429 207.626786 
L -1188.514286 207.626786 
L -1218.407143 207.626786 
L -1248.3 207.626786 
L -1278.192857 207.626786 
L -1308.085714 207.626786 
L -1337.978571 207.626786 
L -1367.871429 207.626786 
L -1397.764286 207.626786 
L -1427.657143 207.626786 
L -1457.55 207.626786 
L -1487.442857 207.626786 
L -1517.335714 207.626786 
L -1547.228571 207.626786 
L -1577.121429 207.626786 
L -1607.014286 207.626786 
L -1636.907143 207.626786 
L -1666.8 207.626786 
L -1696.692857 207.626786 
L -1726.585714 207.626786 
L -1756.478571 207.626786 
L -1786.371429 207.626786 
L -1816.264286 207.626786 
L -1846.157143 207.626786 
L -1876.05 207.626786 
L -1905.942857 207.626786 
L -1935.835714 207.626786 
z
" style="fill:#f8f8f8;"/>
    <path clip-path="url(#pea3e9f631b)" d="M -1935.835714 207.626786 
L -1905.942857 207.626786 
L -1876.05 207.626786 
L -1846.157143 207.626786 
L -1816.264286 207.626786 
L -1786.371429 207.626786 
L -1756.478571 207.626786 
L -1726.585714 207.626786 
L -1696.692857 207.626786 
L -1666.8 207.626786 
L -1636.907143 207.626786 
L -1607.014286 207.626786 
L -1577.121429 207.626786 
L -1547.228571 207.626786 
L -1517.335714 207.626786 
L -1487.442857 207.626786 
L -1457.55 207.626786 
L -1427.657143 207.626786 
L -1397.764286 207.626786 
L -1367.871429 207.626786 
L -1337.978571 207.626786 
L -1308.085714 207.626786 
L -1278.192857 207.626786 
L -1248.3 207.626786 
L -1218.407143 207.626786 
L -1188.514286 207.626786 
L -1158.621429 207.626786 
L -1128.728571 207.626786 
L -1098.835714 207.626786 
L -1068.942857 207.626786 
L -1039.05 207.626786 
L -1009.157143 207.626786 
L -979.264286 207.626786 
L -949.371429 207.626786 
L -919.478571 207.626786 
L -889.585714 207.626786 
L -859.692857 207.626786 
L -829.8 207.626786 
L -799.907143 207.626786 
L -770.014286 207.626786 
L -740.121429 207.626786 
L -710.228571 207.626786 
L -680.335714 207.626786 
L -650.442857 207.626786 
L -620.55 207.626786 
L -590.657143 207.626786 
L -560.764286 207.626786 
L -530.871429 207.626786 
L -500.978571 207.626786 
L -471.085714 207.626786 
L -441.192857 207.626786 
L -411.3 207.626786 
L -381.407143 207.626786 
L -351.514286 207.626786 
L -321.621429 207.626786 
L -291.728571 207.626786 
L -261.835714 207.626786 
L -231.942857 207.626786 
L -202.05 207.626786 
L -172.157143 207.626786 
L -142.264286 207.626786 
L -112.371429 207.626786 
L -82.478571 207.626786 
L -52.585714 207.626786 
L -22.692857 207.626786 
L 7.2 207.626786 
L 37.092857 207.626786 
L 66.985714 207.626786 
L 96.878571 207.626786 
L 126.771429 207.626786 
L 156.664286 207.626786 
L 186.557143 207.626786 
L 216.45 207.626786 
L 246.342857 207.626786 
L 276.235714 207.626786 
L 306.128571 207.626786 
L 336.021429 207.626786 
L 365.914286 207.626786 
L 395.807143 207.626786 
L 425.7 207.626786 
L 455.592857 207.626786 
L 485.485714 207.626786 
L 515.378571 207.626786 
L 545.271429 207.626786 
L 575.164286 207.626786 
L 605.057143 207.626786 
L 634.95 207.626786 
L 664.842857 207.626786 
L 694.735714 207.626786 
L 724.628571 207.626786 
L 754.521429 207.626786 
L 784.414286 207.626786 
L 814.307143 207.626786 
L 844.2 207.626786 
L 874.092857 207.626786 
L 903.985714 207.626786 
L 933.878571 207.626786 
L 963.771429 207.626786 
L 993.664286 207.626786 
L 1023.557143 207.626786 
L 1053.45 207.626786 
L 1083.342857 207.626786 
L 1113.235714 207.626786 
L 1143.128571 207.626786 
L 1173.021429 207.626786 
L 1202.914286 207.626786 
L 1232.807143 207.626786 
L 1262.7 207.626786 
L 1292.592857 207.626786 
L 1322.485714 207.626786 
L 1352.378571 207.626786 
L 1382.271429 207.626786 
L 1412.164286 207.626786 
L 1442.057143 207.626786 
L 1471.95 207.626786 
L 1501.842857 207.626786 
L 1531.735714 207.626786 
L 1561.628571 207.626786 
L 1591.521429 207.626786 
L 1621.414286 207.626786 
L 1651.307143 207.626786 
L 1681.2 207.626786 
L 1711.092857 207.626786 
L 1740.985714 207.626786 
L 1770.878571 207.626786 
L 1800.771429 207.626786 
L 1830.664286 207.626786 
L 1860.557143 207.626786 
L 1890.45 207.626786 
L 1920.342857 207.626786 
L 1950.235714 207.626786 
L 1980.128571 207.626786 
L 2010.021429 207.626786 
L 2039.914286 207.626786 
L 2069.807143 207.626786 
L 2099.7 207.626786 
L 2129.592857 207.626786 
L 2159.485714 207.626786 
L 2189.378571 207.626786 
L 2219.271429 207.626786 
L 2249.164286 207.626786 
L 2279.057143 207.626786 
L 2308.95 207.626786 
L 2338.842857 207.626786 
L 2368.735714 207.626786 
L 2398.628571 207.626786 
L 2428.521429 207.626786 
L 2458.414286 207.626786 
L 2488.307143 207.626786 
L 2518.2 207.626786 
L 2548.092857 207.626786 
L 2577.985714 207.626786 
L 2607.878571 207.626786 
L 2637.771429 207.626786 
L 2667.664286 207.626786 
L 2697.557143 207.626786 
L 2727.45 207.626786 
L 2757.342857 207.626786 
L 2787.235714 207.626786 
L 2817.128571 207.626786 
L 2847.021429 207.626786 
L 2876.914286 207.626786 
L 2906.807143 207.626786 
L 2936.7 207.626786 
L 2966.592857 207.626786 
L 2996.485714 207.626786 
L 3026.378571 207.626786 
L 3056.271429 207.626786 
L 3086.164286 207.626786 
L 3116.057143 207.626786 
L 3145.95 207.626786 
L 3175.842857 207.626786 
L 3205.735714 207.626786 
L 3235.628571 207.626786 
L 3265.521429 207.626786 
L 3295.414286 207.626786 
L 3325.307143 207.626786 
L 3355.2 207.626786 
L 3385.092857 207.626786 
L 3414.985714 207.626786 
L 3444.878571 207.626786 
L 3474.771429 207.626786 
L 3504.664286 207.626786 
L 3534.557143 207.626786 
L 3564.45 207.626786 
L 3594.342857 207.626786 
L 3624.235714 207.626786 
L 3654.128571 207.626786 
L 3684.021429 207.626786 
L 3713.914286 207.626786 
L 3743.807143 207.626786 
L 3773.7 207.626786 
L 3803.592857 207.626786 
L 3833.485714 207.626786 
L 3863.378571 207.626786 
L 3893.271429 207.626786 
L 3923.164286 207.626786 
L 3953.057143 207.626786 
L 3982.95 207.626786 
L 4012.842857 207.626786 
L 4042.735714 207.626786 
L 4072.628571 207.626786 
L 4102.521429 207.626786 
L 4132.414286 207.626786 
L 4162.307143 207.626786 
L 4192.2 207.626786 
L 4222.092857 207.626786 
L 4251.985714 207.626786 
L 4281.878571 207.626786 
L 4311.771429 207.626786 
L 4311.771429 103.001786 
L 4281.878571 103.001786 
L 4251.985714 103.001786 
L 4222.092857 103.001786 
L 4192.2 103.001786 
L 4162.307143 103.001786 
L 4132.414286 103.001786 
L 4102.521429 103.001786 
L 4072.628571 103.001786 
L 4042.735714 103.001786 
L 4012.842857 103.001786 
L 3982.95 103.001786 
L 3953.057143 103.001786 
L 3923.164286 103.001786 
L 3893.271429 103.001786 
L 3863.378571 103.001786 
L 3833.485714 103.001786 
L 3803.592857 103.001786 
L 3773.7 103.001786 
L 3743.807143 103.001786 
L 3713.914286 103.001786 
L 3684.021429 103.001786 
L 3654.128571 103.001786 
L 3624.235714 103.001786 
L 3594.342857 103.001786 
L 3564.45 103.001786 
L 3534.557143 103.001786 
L 3504.664286 103.001786 
L 3474.771429 103.001786 
L 3444.878571 103.001786 
L 3414.985714 103.001786 
L 3385.092857 103.001786 
L 3355.2 103.001786 
L 3325.307143 103.001786 
L 3295.414286 103.001786 
L 3265.521429 103.001786 
L 3235.628571 103.001786 
L 3205.735714 103.001786 
L 3175.842857 103.001786 
L 3145.95 103.001786 
L 3116.057143 103.001786 
L 3086.164286 103.001786 
L 3056.271429 103.001786 
L 3026.378571 103.001786 
L 2996.485714 103.001786 
L 2966.592857 103.001786 
L 2936.7 103.001786 
L 2906.807143 103.001786 
L 2876.914286 103.001786 
L 2847.021429 103.001786 
L 2817.128571 103.001786 
L 2787.235714 103.001786 
L 2757.342857 103.001786 
L 2727.45 103.001786 
L 2697.557143 103.001786 
L 2667.664286 103.001786 
L 2637.771429 103.001786 
L 2607.878571 103.001786 
L 2577.985714 103.001786 
L 2548.092857 103.001786 
L 2518.2 103.001786 
L 2488.307143 103.001786 
L 2458.414286 103.001786 
L 2428.521429 103.001786 
L 2398.628571 103.001786 
L 2368.735714 103.001786 
L 2338.842857 103.001786 
L 2308.95 103.001786 
L 2279.057143 103.001786 
L 2249.164286 103.001786 
L 2219.271429 103.001786 
L 2189.378571 103.001786 
L 2159.485714 103.001786 
L 2129.592857 103.001786 
L 2099.7 103.001786 
L 2069.807143 103.001786 
L 2039.914286 103.001786 
L 2010.021429 103.001786 
L 1980.128571 103.001786 
L 1950.235714 103.001786 
L 1920.342857 103.001786 
L 1890.45 103.001786 
L 1860.557143 103.001786 
L 1830.664286 103.001786 
L 1800.771429 103.001786 
L 1770.878571 103.001786 
L 1740.985714 103.001786 
L 1711.092857 103.001786 
L 1681.2 103.001786 
L 1651.307143 103.001786 
L 1621.414286 103.001786 
L 1591.521429 103.001786 
L 1561.628571 103.001786 
L 1531.735714 103.001786 
L 1501.842857 103.001786 
L 1471.95 103.001786 
L 1442.057143 103.001786 
L 1412.164286 103.001786 
L 1382.271429 103.001786 
L 1352.378571 103.001786 
L 1322.485714 103.001786 
L 1292.592857 103.001786 
L 1262.7 103.001786 
L 1232.807143 103.001786 
L 1202.914286 103.001786 
L 1173.021429 103.001786 
L 1143.128571 103.001786 
L 1113.235714 103.001786 
L 1083.342857 103.001786 
L 1053.45 103.001786 
L 1023.557143 103.001786 
L 993.664286 103.001786 
L 963.771429 103.001786 
L 933.878571 103.001786 
L 903.985714 103.001786 
L 874.092857 103.001786 
L 844.2 103.001786 
L 814.307143 103.001786 
L 784.414286 103.001786 
L 754.521429 103.001786 
L 724.628571 103.001786 
L 694.735714 103.001786 
L 664.842857 103.001786 
L 634.95 103.001786 
L 605.057143 103.001786 
L 575.164286 103.001786 
L 545.271429 103.001786 
L 515.378571 103.001786 
L 485.485714 103.001786 
L 455.592857 103.001786 
L 425.7 103.001786 
L 395.807143 103.001786 
L 365.914286 103.001786 
L 336.021429 103.001786 
L 306.128571 103.001786 
L 276.235714 103.001786 
L 246.342857 103.001786 
L 216.45 103.001786 
L 186.557143 103.001786 
L 156.664286 103.001786 
L 126.771429 103.001786 
L 96.878571 103.001786 
L 66.985714 103.001786 
L 37.092857 103.001786 
L 7.2 103.001786 
L -22.692857 103.001786 
L -52.585714 103.001786 
L -82.478571 103.001786 
L -112.371429 103.001786 
L -142.264286 103.001786 
L -172.157143 103.001786 
L -202.05 103.001786 
L -231.942857 103.001786 
L -261.835714 103.001786 
L -291.728571 103.001786 
L -321.621429 103.001786 
L -351.514286 103.001786 
L -381.407143 103.001786 
L -411.3 103.001786 
L -441.192857 103.001786 
L -471.085714 103.001786 
L -500.978571 103.001786 
L -530.871429 103.001786 
L -560.764286 103.001786 
L -590.657143 103.001786 
L -620.55 103.001786 
L -650.442857 103.001786 
L -680.335714 103.001786 
L -710.228571 103.001786 
L -740.121429 103.001786 
L -770.014286 103.001786 
L -799.907143 103.001786 
L -829.8 103.001786 
L -859.692857 103.001786 
L -889.585714 103.001786 
L -919.478571 103.001786 
L -949.371429 103.001786 
L -979.264286 103.001786 
L -1009.157143 103.001786 
L -1039.05 103.001786 
L -1068.942857 103.001786 
L -1098.835714 103.001786 
L -1128.728571 103.001786 
L -1158.621429 103.001786 
L -1188.514286 103.001786 
L -1218.407143 103.001786 
L -1248.3 103.001786 
L -1278.192857 103.001786 
L -1308.085714 103.001786 
L -1337.978571 103.001786 
L -1367.871429 103.001786 
L -1397.764286 103.001786 
L -1427.657143 103.001786 
L -1457.55 103.001786 
L -1487.442857 103.001786 
L -1517.335714 103.001786 
L -1547.228571 103.001786 
L -1577.121429 103.001786 
L -1607.014286 103.001786 
L -1636.907143 103.001786 
L -1666.8 103.001786 
L -1696.692857 103.001786 
L -1726.585714 103.001786 
L -1756.478571 103.001786 
L -1786.371429 103.001786 
L -1816.264286 103.001786 
L -1846.157143 103.001786 
L -1876.05 103.001786 
L -1905.942857 103.001786 
L -1935.835714 103.001786 
z
" style="fill:#f8f8f8;"/>
   </g>
   <g id="PathCollection_1">
    <path clip-path="url(#pea3e9f631b)" d="M -1 312.251786 
L 1270.9 312.251786 
L 1270.9 312.251786 
" style="fill:none;stroke:#555555;stroke-width:0.5;"/>
    <path clip-path="url(#pea3e9f631b)" d="M -1 207.626786 
L 1270.9 207.626786 
L 1270.9 207.626786 
" style="fill:none;stroke:#555555;stroke-width:0.5;"/>
   </g>
   <g id="PathCollection_2">
    <path clip-path="url(#pea3e9f631b)" d="M -1 207.626786 
L 1270.9 207.626786 
L 1270.9 207.626786 
" style="fill:none;stroke:#555555;stroke-width:0.5;"/>
    <path clip-path="url(#pea3e9f631b)" d="M -1 103.001786 
L 1270.9 103.001786 
L 1270.9 103.001786 
" style="fill:none;stroke:#555555;stroke-width:0.5;"/>
   </g>
   <g id="PathCollection_3">
    <path clip-path="url(#pea3e9f631b)" d="M -1 259.939286 
L 1270.9 259.939286 
L 1270.9 259.939286 
" style="fill:none;stroke:#dddddd;stroke-width:0.5;"/>
    <path clip-path="url(#pea3e9f631b)" d="M -1 155.314286 
L 1270.9 155.314286 
L 1270.9 155.314286 
" style="fill:none;stroke:#dddddd;stroke-width:0.5;"/>
   </g>
   <g id="PathCollection_4">
    <path clip-path="url(#pea3e9f631b)" d="M -1935.835714 282.358929 
L -1890.996429 259.939286 
L -1935.835714 237.519643 
z
" style="fill:#dddddd;stroke:#dddddd;stroke-width:0.5;"/>
    <path clip-path="url(#pea3e9f631b)" d="M -1935.835714 177.733929 
L -1890.996429 155.314286 
L -1935.835714 132.894643 
z
" style="fill:#dddddd;stroke:#dddddd;stroke-width:0.5;"/>
   </g>
   <g id="PolyCollection_2">
    <defs>
     <path d="M 1053.45 -146.346429 
L 1202.914286 -146.346429 
L 1202.914286 -194.175 
L 1053.45 -194.175 
z
" id="me9addea032" style="stroke:#302404;stroke-width:0.5;"/>
    </defs>
    <g clip-path="url(#pea3e9f631b)">
     <use style="fill:#f1b514;stroke:#302404;stroke-width:0.5;" x="0" xlink:href="#me9addea032" y="430.2"/>
    </g>
   </g>
   <g id="PolyCollection_3">
    <defs>
     <path d="M 495.176832 -150.774182 
L 548.766203 -155.61029 
L 545.146025 -195.725818 
L 491.556654 -190.88971 
z
" id="m3d5d8684af" style="stroke:#831d20;stroke-width:0.5;"/>
    </defs>
    <g clip-path="url(#pea3e9f631b)">
     <use style="fill:#d95558;stroke:#831d20;stroke-width:0.5;" x="0" xlink:href="#m3d5d8684af" y="430.2"/>
    </g>
   </g>
   <g id="PolyCollection_4">
    <defs>
     <path d="M 89.780504 -146.647868 
L 224.510553 -149.342828 
L 223.548068 -197.460703 
L 88.818018 -194.765743 
z
" id="m40ca243b07" style="stroke:#0066cc;stroke-width:0.5;"/>
    </defs>
    <g clip-path="url(#pea3e9f631b)">
     <use style="fill:#1d7eea;stroke:#0066cc;stroke-width:0.5;" x="0" xlink:href="#m40ca243b07" y="430.2"/>
    </g>
   </g>
   <g id="line2d_1">
    <defs>
     <path d="M 0 1.5 
C 0.397805 1.5 0.77937 1.341951 1.06066 1.06066 
C 1.341951 0.77937 1.5 0.397805 1.5 0 
C 1.5 -0.397805 1.341951 -0.77937 1.06066 -1.06066 
C 0.77937 -1.341951 0.397805 -1.5 0 -1.5 
C -0.397805 -1.5 -0.77937 -1.341951 -1.06066 -1.06066 
C -1.341951 -0.77937 -1.5 -0.397805 -1.5 0 
C -1.5 0.397805 -1.341951 0.77937 -1.06066 1.06066 
C -0.77937 1.341951 -0.397805 1.5 0 1.5 
z
" id="m17e4368cd6" style="stroke:#000080;"/>
    </defs>
    <g clip-path="url(#pea3e9f631b)">
     <use style="fill:#000080;stroke:#000080;" x="156.664286" xlink:href="#m17e4368cd6" y="258.145714"/>
    </g>
   </g>
  </g>
 </g>
 <defs>
  <clipPath id="pea3e9f631b">
   <rect height="415.8" width="1255.5" x="7.2" y="7.2"/>
  </clipPath>
 </defs>
</svg>
